# AST/ASF file generated using VICON BodyLanguage
# -----------------------------------------------
:version 1.10
:name VICON
:units
  mass 1.0
  length 0.45
  angle deg
:documentation
   .ast/.asf automatically generated from VICON data using
   VICON BodyBuilder and BodyLanguage model FoxedUp or BRILLIANT.MOD
:root
   order TX TY TZ RX RY RZ
   axis XYZ
   position 0 0 0  
   orientation 0 0 0 
:bonedata
  begin
     id 1 
     name lhipjoint
     direction 0.578396 -0.714046 0.394458 
     length 2.21935 
     axis 0 0 0  XYZ
  end
  begin
     id 2 
     name lfemur
     direction 0.34202 -0.939693 0  
     length 6.39105  
     axis 0 0 20  XYZ
    dof rx ry rz
    limits (-160.0 20.0)
           (-70.0 70.0)
           (-60.0 70.0)
  end
  begin
     id 3 
     name ltibia
     direction 0.34202 -0.939693 0   
     length 6.99037   
     axis 0 0 20   XYZ
    dof rx
    limits (-10.0 170.0)
  end
  begin
     id 4 
     name lfoot
     direction 0.0582372 -0.160005 0.985397   
     length 2.06111   
     axis -90 7.62852e-016 20   XYZ
    dof rx rz
    limits (-45.0 90.0)
           (-70.0 20.0)
  end
  begin
     id 5 
     name ltoes
     direction 1.53556e-011 -4.21875e-011 1   
     length 1.04074   
     axis -90 7.62852e-016 20   XYZ
    dof rx
    limits (-90.0 20.0)
  end
  begin
     id 6 
     name rhipjoint
     direction -0.558179 -0.726269 0.40121   
     length 2.182  
     axis 0 0 0  XYZ 
  end
  begin
     id 7 
     name rfemur
     direction -0.34202 -0.939693 0   
     length 6.51172   
     axis 0 0 -20   XYZ
    dof rx ry rz
    limits (-160.0 20.0)
           (-70.0 70.0)
           (-70.0 60.0)
  end
  begin
     id 8 
     name rtibia
     direction -0.34202 -0.939693 0   
     length 7.02607   
     axis 0 0 -20   XYZ
    dof rx
    limits (-10.0 170.0)
 end
 begin
     id 9 
     name rfoot
     direction -0.0788856 -0.216737 0.973038   
     length 1.96734  
     axis -90 -7.62852e-016 -20   XYZ
    dof rx rz
    limits (-45.0 90.0)
           (-20.0 70.0)
  end
  begin
     id 10 
     name rtoes
     direction -1.53567e-011 -4.21783e-011 1   
     length 0.990825   
     axis -90 -7.62852e-016 -20   XYZ
    dof rx
    limits (-90.0 20.0)
  end
  begin
     id 11 
     name lowerback
     direction 0.00668177 0.999323 -0.0361741   
     length 1.7655   
     axis 0 0 0   XYZ
    dof rx ry rz
    limits (-20.0 45.0)
           (-30.0 30.0)
           (-30.0 30.0)
  end
  begin
     id 12 
     name upperback
     direction -0.00222086 0.99851 0.0545167   
     length 1.74912   
     axis 0 0 0   XYZ
    dof rx ry rz
    limits (-20.0 45.0)
           (-30.0 30.0)
           (-30.0 30.0)
  end
  begin
     id 13 
     name thorax
     direction -0.00733971 0.997496 0.0703443   
     length 1.75715   
     axis 0 0 0   XYZ
    dof rx ry rz
    limits (-20.0 45.0)
           (-30.0 30.0)
           (-30.0 30.0)
  end
  begin
     id 14 
     name lowerneck
     direction 0.0279797 0.994795 0.0979765   
     length 1.46939   
     axis 0 0 0   XYZ
    dof rx ry rz
    limits (-20.0 45.0)
           (-30.0 30.0)
           (-30.0 30.0)
  end
  begin
     id 15 
     name upperneck
     direction 0.00339187 0.976776 -0.214238   
     length 1.48018   
     axis 0 0 0   XYZ
    dof rx ry rz
    limits (-20.0 45.0)
           (-30.0 30.0)
           (-30.0 30.0)
  end
  begin
     id 16
     name head
     direction -0.00263506 0.996603 -0.0823096  
     length 1.4976  
     axis 0 0 0   XYZ
    dof rx ry rz
    limits (-20.0 45.0)
           (-30.0 30.0)
           (-30.0 30.0)
  end
  begin
     id 17 
     name lclavicle
     direction 0.894044 0.44508 -0.0508781  
     length 3.03024  
     axis 0 0 0   XYZ
    dof ry rz
    limits (-20.0 10.0)
           (0.0 20.0)
  end
  begin
     id 18 
     name lhumerus
     direction 1 -4.48961e-011 -2.39475e-018   
     length 4.4661   
     axis 180 -30 -90   XYZ
    dof rx ry rz
    limits (-60.0 90.0)
           (-90.0 90.0)
           (-90.0 90.0)
  end
  begin
     id 19
     name lradius
     direction 1 -4.48961e-011 9.29328e-028   
     length 3.41414   
     axis 180 -30 -90   XYZ
    dof rx
    limits (-10.0 170.0)
  end
  begin
     id 20
     name lwrist
     direction 1 -4.48985e-011 1.53461e-026   
     length 1.70707   
     axis -1.09697e-014 90 90   XYZ
    dof ry
    limits (-180.0 0.0)
 end
  begin
     id 21 
     name lhand
     direction 1 -4.48966e-011 3.06923e-026   
     length 0.328298   
     axis -1.95843e-014 90 90   XYZ
    dof rx rz
    limits (-90.0 90.0)
           (-45.0 45.0)
  end
  begin
     id 22 
     name lfingers
     direction 1 -4.48893e-011 6.13845e-026   
     length 0.264682   
     axis -3.91686e-014 90 90   XYZ
    dof rx
    limits (0.0 90.0)
  end
  begin
     id 23
     name lthumb
     direction 0.707107 -6.34876e-011 0.707107   
     length 0.380032   
     axis -90 45 2.85299e-015   XYZ
    dof rx rz
    limits (-45.0 45.0)
           (-45.0 45.0)
  end
  begin
     id 24 
     name rclavicle
     direction -0.936955 0.347862 -0.0332887   
     length 3.26927  
     axis 0 0 0   XYZ 
    dof ry rz
    limits (-10.0 20.0)
           (-20.0 0.0)
  end
  begin
     id 25 
     name rhumerus
     direction -1 -4.4896e-011 1.78637e-018  
     length 4.40431   
     axis 180 30 90   XYZ
    dof rx ry rz
    limits (-90.0 60.0)
           (-90.0 90.0)
           (-90.0 90.0)
  end
  begin
     id 26 
     name rradius
     direction -1 -4.48955e-011 9.34036e-027   
     length 3.04688   
     axis 180 30 90   XYZ
    dof rx
    limits (-10.0 170.0)
  end
  begin
     id 27 
     name rwrist
     direction -1 -4.49011e-011 1.53461e-026   
     length 1.52344   
     axis -1.09697e-014 -90 -90   XYZ
    dof ry
    limits (-180.0 0.0)
  end
  begin
     id 28
     name rhand
     direction -1 -4.48834e-011 3.06923e-026   
     length 0.500489   
     axis -1.95843e-014 -90 -90   XYZ
    dof rx rz
    limits (-90.0 90.0)
           (-45.0 45.0)
  end
  begin
     id 29
     name rfingers
     direction -1 -4.48967e-011 6.13845e-026   
     length 0.403507   
     axis -3.91686e-014 -90 -90   XYZ
    dof rx
    limits (0.0 90.0)
  end
  begin
     id 30
     name rthumb
     direction -0.707107 -6.34826e-011 0.707107   
     length 0.579358   
     axis -90 -45 -2.85299e-015   XYZ
    dof rx rz
    limits (-45.0 45.0)
           (-45.0 45.0)
  end
:hierarchy
  begin
    root lhipjoint rhipjoint lowerback
    lhipjoint lfemur
    lfemur ltibia
    ltibia lfoot
    lfoot ltoes
    rhipjoint rfemur
    rfemur rtibia
    rtibia rfoot
    rfoot rtoes
    lowerback upperback
    upperback thorax
    thorax lowerneck lclavicle rclavicle
    lowerneck upperneck
    upperneck head
    lclavicle lhumerus
    lhumerus lradius
    lradius lwrist
    lwrist lhand lthumb
    lhand lfingers
    rclavicle rhumerus
    rhumerus rradius
    rradius rwrist
    rwrist rhand rthumb
    rhand rfingers
  end

#!OML:ASF H:\IndianDance\Patient Classification 1\Patient 1\Session 1\dancer.ASF
:FULLY-SPECIFIED
:DEGREES
1
root 3.67387 12.4332 7.85162 -174.88 4.48071 -176.52
lowerback 6.06303 2.93189 2.19885
upperback -5.64888 4.31009 -0.629912
thorax -9.17476 2.00734 -2.5032
lowerneck -20.6834 -0.307152 -1.79294
upperneck 24.8947 -3.13638 8.35274
head 11.7719 -0.826585 2.8455
rclavicle 4.8081e-014 1.90833e-014
rhumerus -4.01693 43.8972 -4.34873
rradius 57.5146
rwrist -15.0511
rhand -12.4277 19.8948
rfingers 7.12502
rthumb 13.6448 -9.63796
lclavicle 4.8081e-014 1.90833e-014
lhumerus 9.67141 -40.6381 -10.1835
lradius 60.5127
lwrist 23.1661
lhand -8.88883 -4.8532
lfingers 7.12502
lthumb 17.0534 24.4183
rfemur -51.6937 -47.8189 20.4886
rtibia 87.4556
rfoot -30.8449 3.70316
rtoes 9.61453
lfemur -45.1222 45.8695 -13.5189
ltibia 88.8859
lfoot -35.1212 8.8963
ltoes 0.840236
2
root 3.67925 12.4378 7.85168 -174.871 4.44202 -176.534
lowerback 6.02578 2.91072 2.18817
upperback -5.65889 4.28151 -0.628103
thorax -9.16611 1.99508 -2.48963
lowerneck -20.7082 -0.252346 -1.7792
upperneck 24.8982 -3.07391 8.38998
head 11.7749 -0.791627 2.8676
rclavicle 4.12727e-014 -9.54166e-015
rhumerus -3.99933 43.8581 -4.39623
rradius 57.4998
rwrist -15.0066
rhand -12.4168 19.8602
rfingers 7.12502
rthumb 13.6553 -9.67185
lclavicle 4.12727e-014 -9.54166e-015
lhumerus 9.51391 -40.6575 -10.0823
lradius 60.5297
lwrist 23.18
lhand -9.00712 -4.83956
lfingers 7.12502
lthumb 16.9396 24.4417
rfemur -51.6575 -47.787 20.5098
rtibia 87.3904
rfoot -30.8823 3.5891
rtoes 9.46364
lfemur -45.1116 45.8873 -13.5237
ltibia 88.7969
lfoot -35.0879 8.83292
ltoes 1.04727
3
root 3.68381 12.4471 7.85097 -174.872 4.41341 -176.567
lowerback 5.99742 2.92727 2.14684
upperback -5.66682 4.29986 -0.632937
thorax -9.15953 2.00726 -2.47269
lowerneck -20.7333 -0.23784 -1.7028
upperneck 24.9052 -3.06494 8.3441
head 11.7804 -0.784663 2.83915
rclavicle -2.97929e-014 -6.75868e-015
rhumerus -4.11014 43.8573 -4.44737
rradius 57.5191
rwrist -14.9814
rhand -12.5434 19.8488
rfingers 7.12502
rthumb 13.5333 -9.6914
lclavicle -2.97929e-014 -6.75868e-015
lhumerus 9.48106 -40.6458 -9.99488
lradius 60.5236
lwrist 23.1866
lhand -9.05452 -4.88355
lfingers 7.12502
lthumb 16.894 24.4016
rfemur -51.5792 -47.7318 20.4764
rtibia 87.2862
rfoot -30.8981 3.55024
rtoes 9.6108
lfemur -45.0469 45.7871 -13.5501
ltibia 88.6632
lfoot -35.0579 8.86952
ltoes 1.09729
4
root 3.69068 12.4573 7.85087 -174.872 4.38669 -176.593
lowerback 5.97252 2.93921 2.08763
upperback -5.67727 4.31121 -0.629395
thorax -9.16008 2.01739 -2.43644
lowerneck -20.7355 -0.224132 -1.66286
upperneck 24.8758 -3.05348 8.34251
head 11.7684 -0.775257 2.833
rclavicle -2.66868e-014 -2.8625e-014
rhumerus -4.21319 43.9055 -4.50126
rradius 57.4595
rwrist -14.7195
rhand -12.8866 20.0904
rfingers 7.12502
rthumb 13.2025 -9.47154
lclavicle -2.66868e-014 -2.8625e-014
lhumerus 9.38553 -40.6015 -9.84472
lradius 60.5109
lwrist 23.14
lhand -9.06748 -4.89651
lfingers 7.12502
lthumb 16.8815 24.3898
rfemur -51.4786 -47.6715 20.4837
rtibia 87.175
rfoot -30.942 3.36822
rtoes 9.23443
lfemur -44.9691 45.6288 -13.5608
ltibia 88.5256
lfoot -35.0076 9.02204
ltoes 0.890751
5
root 3.69459 12.4641 7.85044 -174.866 4.34954 -176.593
lowerback 5.92388 2.93276 2.08657
upperback -5.68166 4.30325 -0.622453
thorax -9.13713 2.01505 -2.42441
lowerneck -20.7332 -0.188841 -1.61579
upperneck 24.853 -3.0181 8.34951
head 11.7568 -0.753803 2.83277
rclavicle 1.55549e-014 9.14409e-015
rhumerus -4.23256 43.808 -4.56076
rradius 57.4161
rwrist -14.6906
rhand -12.8095 20.1106
rfingers 7.12502
rthumb 13.2768 -9.44655
lclavicle 1.55549e-014 9.14409e-015
lhumerus 9.30847 -40.5771 -9.7392
lradius 60.4661
lwrist 23.0801
lhand -9.06597 -4.88358
lfingers 7.12502
lthumb 16.8829 24.4026
rfemur -51.4204 -47.6378 20.5073
rtibia 87.08
rfoot -30.9475 3.26799
rtoes 9.10673
lfemur -44.934 45.6039 -13.5442
ltibia 88.4152
lfoot -34.9599 8.98665
ltoes 0.938205
6
root 3.69949 12.4722 7.85005 -174.862 4.31739 -176.607
lowerback 5.88848 2.93648 2.05487
upperback -5.68991 4.3065 -0.614194
thorax -9.12794 2.01989 -2.39656
lowerneck -20.7418 -0.165913 -1.58659
upperneck 24.8431 -2.99462 8.35404
head 11.7531 -0.739271 2.83317
rclavicle 2.72087e-014 1.59028e-014
rhumerus -4.28706 43.7792 -4.60378
rradius 57.3782
rwrist -14.5986
rhand -12.8793 20.1884
rfingers 7.12502
rthumb 13.2095 -9.37311
lclavicle 2.72087e-014 1.59028e-014
lhumerus 9.23993 -40.5576 -9.62946
lradius 60.4412
lwrist 23.0446
lhand -9.06194 -4.89472
lfingers 7.12502
lthumb 16.8868 24.3911
rfemur -51.3468 -47.5921 20.514
rtibia 86.9779
rfoot -30.964 3.15567
rtoes 8.95082
lfemur -44.8807 45.534 -13.5462
ltibia 88.2911
lfoot -34.9176 9.01575
ltoes 0.92768
